Run_50003
nRows=4
nColumns=173

# SIMM Motion File Header:
name Run_50003
datacolumns 173
datarows 4
otherdata 1
range 1.90000000 1.93000000
endheader
time	pelvis_tilt	pelvis_list	pelvis_rotation	pelvis_tx	pelvis_ty	pelvis_tz	hip_flexion_r	hip_adduction_r	hip_rotation_r	knee_angle_r	ankle_angle_r	hip_flexion_l	hip_adduction_l	hip_rotation_l	knee_angle_l	ankle_angle_l	lumbar_extension	lumbar_bending	lumbar_rotation	arm_flex_r	arm_add_r	arm_rot_r	elbow_flex_r	pro_sup_r	arm_flex_l	arm_add_l	arm_rot_l	elbow_flex_l	pro_sup_l	subtalar_angle_r	mtp_angle_r	subtalar_angle_l	mtp_angle_l	wrist_flex_r	wrist_dev_r	wrist_flex_l	wrist_dev_l	LASI_tx	LASI_ty	LASI_tz	RASI_tx	RASI_ty	RASI_tz	LPSI_tx	LPSI_ty	LPSI_tz	RPSI_tx	RPSI_ty	RPSI_tz	RTH1_tx	RTH1_ty	RTH1_tz	RTH2_tx	RTH2_ty	RTH2_tz	RTH3_tx	RTH3_ty	RTH3_tz	LTH1_tx	LTH1_ty	LTH1_tz	LTH2_tx	LTH2_ty	LTH2_tz	LTH3_tx	LTH3_ty	LTH3_tz	RTB1_tx	RTB1_ty	RTB1_tz	RTB2_tx	RTB2_ty	RTB2_tz	RTB3_tx	RTB3_ty	RTB3_tz	RLMAL_tx	RLMAL_ty	RLMAL_tz	RMMAL_tx	RMMAL_ty	RMMAL_tz	LTB1_tx	LTB1_ty	LTB1_tz	LTB2_tx	LTB2_ty	LTB2_tz	LTB3_tx	LTB3_ty	LTB3_tz	RCAL_tx	RCAL_ty	RCAL_tz	RTOE_tx	RTOE_ty	RTOE_tz	RMT5_tx	RMT5_ty	RMT5_tz	LCAL_tx	LCAL_ty	LCAL_tz	LTOE_tx	LTOE_ty	LTOE_tz	LMT5_tx	LMT5_ty	LMT5_tz	LACR_tx	LACR_ty	LACR_tz	RACR_tx	RACR_ty	RACR_tz	CLAV_tx	CLAV_ty	CLAV_tz	C7_tx	C7_ty	C7_tz	LPSH_tx	LPSH_ty	LPSH_tz	RUA1_tx	RUA1_ty	RUA1_tz	RUA2_tx	RUA2_ty	RUA2_tz	RUA3_tx	RUA3_ty	RUA3_tz	RLEL_tx	RLEL_ty	RLEL_tz	RMEL_tx	RMEL_ty	RMEL_tz	LUA1_tx	LUA1_ty	LUA1_tz	LUA2_tx	LUA2_ty	LUA2_tz	LUA3_tx	LUA3_ty	LUA3_tz	LLEL_tx	LLEL_ty	LLEL_tz	LMEL_tx	LMEL_ty	LMEL_tz	RFAsuperior_tx	RFAsuperior_ty	RFAsuperior_tz	RFAradius_tx	RFAradius_ty	RFAradius_tz	RFAulna_tx	RFAulna_ty	RFAulna_tz	LFAsuperior_tx	LFAsuperior_ty	LFAsuperior_tz	LFAradius_tx	LFAradius_ty	LFAradius_tz	LFAulna_tx	LFAulna_ty	LFAulna_tz
      1.90000000	     -7.20807463	      4.26021784	      4.50112281	      0.91266442	      0.99666692	     -0.34680063	      2.05148151	      2.51927347	     -4.06815027	   -102.52263540	     -1.08460004	     30.96196387	     12.71350338	      5.83752906	    -26.18515619	      2.91879528	     -3.60589316	     -6.46205190	      8.38924011	    -28.72378846	    -12.92264156	     -6.67786829	    114.45077444	    101.47880170	    -34.56033162	    -13.62091319	    -13.60116114	    118.31954442	     92.82038951	      0.00000000	      0.00000000	      0.00000000	      0.00000000	      0.00000000	      0.00000000	      0.00000000	      0.00000000	      0.91337633	      1.04099806	     -0.45508643	      0.93732245	      1.02823279	     -0.22439661	      0.76112485	      1.08395142	     -0.37205012	      0.77061055	      1.07565841	     -0.28315067	      0.80619516	      0.76824879	     -0.18590865	      0.86901309	      0.68942799	     -0.21303298	      0.78726036	      0.60426686	     -0.22706059	      0.85214296	      0.82512790	     -0.50079734	      0.96131173	      0.74679673	     -0.49292055	      0.94398170	      0.63580667	     -0.47698587	      0.65251700	      0.48218579	     -0.27467372	      0.60512684	      0.54170626	     -0.23760528	      0.47835205	      0.54570822	     -0.27914205	      0.38545685	      0.61869721	     -0.26807342	      0.39156183	      0.57634521	     -0.34260376	      1.03674066	      0.41482229	     -0.43081923	      0.95897130	      0.30738956	     -0.44343945	      1.02403603	      0.22532248	     -0.39293993	      0.37435600	      0.66266261	     -0.34724013	      0.28077797	      0.47652359	     -0.26230082	      0.29489814	      0.56156288	     -0.21594578	      0.91931380	      0.09027216	     -0.32621413	      1.14662599	      0.07196783	     -0.34625929	      1.08134663	      0.05171854	     -0.41258263	      0.87924467	      1.52983592	     -0.51501742	      0.94755816	      1.52535559	     -0.20490609	      0.98707100	      1.45964095	     -0.34844104	      0.87670060	      1.55606725	     -0.35271772	      0.79411349	      1.50370802	     -0.50133708	      0.88997808	      1.40018786	     -0.09993396	      0.80125823	      1.36781123	     -0.10069144	      0.80260461	      1.31728765	     -0.05109882	      0.80528759	      1.24912089	     -0.02298184	      0.75781532	      1.23951124	     -0.09859391	      0.75816949	      1.43789441	     -0.55726411	      0.69474052	      1.37783850	     -0.51287126	      0.67111013	      1.33990627	     -0.57279733	      0.63800949	      1.26583279	     -0.59645191	      0.64466479	      1.25272252	     -0.50784342	      0.84464987	      1.18502379	     -0.05347679	      0.99956825	      1.18149214	     -0.18181574	      0.99086707	      1.12156666	     -0.15163192	      0.70234665	      1.19158004	     -0.58591571	      0.87917828	      1.20106578	     -0.57543995	      0.86173863	      1.13702931	     -0.59211270
      1.91000000	     -7.43714105	      4.81342949	      4.96664494	      0.90852700	      0.98819081	     -0.34840745	      6.50204490	      0.99567605	     -4.75030497	   -108.53455753	      0.03371854	     31.23657399	     14.22609555	      5.40698101	    -31.92962475	      9.31836951	     -3.89530034	     -7.11642894	      6.40700304	    -28.80892255	    -13.03630313	     -7.39610945	    111.45805288	    102.23688986	    -31.93292182	    -14.13760494	    -13.13107662	    116.31217730	     93.67513784	      0.00000000	      0.00000000	      0.00000000	      0.00000000	      0.00000000	      0.00000000	      0.00000000	      0.00000000	      0.90846429	      1.03307109	     -0.45674887	      0.93454707	      1.01980709	     -0.22361927	      0.75672244	      1.07754855	     -0.37218195	      0.76886719	      1.06779673	     -0.28521626	      0.81593875	      0.75796276	     -0.18516476	      0.88383190	      0.68171903	     -0.21001989	      0.80841291	      0.59224823	     -0.22351153	      0.84713663	      0.81893683	     -0.50240927	      0.95557424	      0.73793427	     -0.49269997	      0.93773204	      0.62837137	     -0.47578057	      0.68138506	      0.47534793	     -0.27206554	      0.63557933	      0.53478716	     -0.23418160	      0.50951471	      0.54300229	     -0.27640216	      0.41871646	      0.61791851	     -0.26475801	      0.42426560	      0.57730717	     -0.34018569	      1.02003810	      0.40597190	     -0.42413031	      0.93262242	      0.30593954	     -0.43841285	      0.98918399	      0.21924436	     -0.38395976	      0.40835324	      0.66390241	     -0.34295170	      0.31237940	      0.47722277	     -0.26259388	      0.32828494	      0.56076897	     -0.21378587	      0.86988084	      0.08907808	     -0.31975399	      1.09854369	      0.06900562	     -0.34248204	      1.03190558	      0.05455193	     -0.40870558	      0.88257208	      1.51987839	     -0.51723758	      0.94447332	      1.51627703	     -0.20408652	      0.98750556	      1.44974491	     -0.34743875	      0.87664087	      1.54696223	     -0.35464266	      0.79757079	      1.49086076	     -0.50649306	      0.88260421	      1.39066614	     -0.09993889	      0.79315248	      1.36003355	     -0.10298323	      0.79239055	      1.31039029	     -0.05254380	      0.79303739	      1.24263025	     -0.02266552	      0.74896590	      1.23279915	     -0.09992701	      0.76464762	      1.42130962	     -0.56459166	      0.70064810	      1.36007857	     -0.52177967	      0.68109485	      1.32070919	     -0.58219954	      0.65089611	      1.24741504	     -0.60660500	      0.65484688	      1.23403197	     -0.51821321	      0.83151321	      1.17597049	     -0.05023384	      0.99063807	      1.16063040	     -0.17217139	      0.97929815	      1.10269025	     -0.13957524	      0.71555420	      1.17391904	     -0.59424109	      0.89172640	      1.18444383	     -0.57788801	      0.87521884	      1.12064549	     -0.59634767
      1.92000000	     -7.65136643	      5.52063664	      5.48397826	      0.90304348	      0.98106131	     -0.34932708	     11.41612331	     -0.62762560	     -5.11494467	   -113.93734664	      0.90784666	     31.34677538	     15.74181314	      4.99895952	    -37.16854859	     13.93935716	     -4.46498769	     -8.01470148	      4.02008171	    -28.41833360	    -13.01425856	     -7.92797653	    108.06385205	    103.31481392	    -29.09960731	    -14.72186410	    -12.79156782	    114.41435860	     93.89545221	      0.00000000	      0.00000000	      0.00000000	      0.00000000	      0.00000000	      0.00000000	      0.00000000	      0.00000000	      0.90192590	      1.02645650	     -0.45720121	      0.93059324	      1.01201139	     -0.22231318	      0.75076975	      1.07246266	     -0.37125047	      0.76567385	      1.06145841	     -0.28620536	      0.82659081	      0.74994661	     -0.18472054	      0.89938811	      0.67655538	     -0.20697497	      0.83169245	      0.58269597	     -0.22029388	      0.84109352	      0.81527936	     -0.50386187	      0.94805019	      0.73077863	     -0.49388721	      0.92966368	      0.62286112	     -0.47401373	      0.71302333	      0.46967487	     -0.27014643	      0.66814867	      0.52789832	     -0.23074518	      0.54250428	      0.53796418	     -0.27373495	      0.45192523	      0.61302719	     -0.26102470	      0.45783239	      0.57474337	     -0.33749214	      1.00205698	      0.40117587	     -0.41832881	      0.90523809	      0.30865882	     -0.43435529	      0.95421352	      0.21781575	     -0.37779578	      0.44145187	      0.66148969	     -0.33790531	      0.34636831	      0.47191774	     -0.26388805	      0.36234708	      0.55382314	     -0.21191643	      0.82153044	      0.09094366	     -0.31499933	      1.05081937	      0.06810742	     -0.33885462	      0.98357324	      0.05637961	     -0.40446353	      0.88670882	      1.51115396	     -0.51963958	      0.94093912	      1.50851947	     -0.20333111	      0.98767613	      1.44085688	     -0.34607466	      0.87651957	      1.53902104	     -0.35679416	      0.80168397	      1.48033007	     -0.51224677	      0.87458638	      1.38176962	     -0.10009099	      0.78418869	      1.35274859	     -0.10566263	      0.78120803	      1.30393083	     -0.05468086	      0.78020026	      1.23683199	     -0.02350518	      0.73926475	      1.22637630	     -0.10211789	      0.77297688	      1.40573553	     -0.57160893	      0.70747170	      1.34318692	     -0.53083534	      0.69252613	      1.30224288	     -0.59173796	      0.66638164	      1.22959009	     -0.61667171	      0.66676048	      1.21578774	     -0.52867705	      0.81742567	      1.16777487	     -0.04768605	      0.98013784	      1.14011777	     -0.16193870	      0.96606701	      1.08435431	     -0.12681430	      0.73084381	      1.15709339	     -0.60254137	      0.90604854	      1.16909651	     -0.57997493	      0.89071565	      1.10526491	     -0.59950358
      1.93000000	     -7.85556047	      5.95051948	      6.08282185	      0.89640970	      0.97564986	     -0.34881153	     16.82307355	     -1.64853352	     -5.21996071	   -118.43570297	      1.62154559	     30.92186067	     16.71267447	      5.06741322	    -41.22993765	     16.90856330	     -5.28295061	     -8.72925127	      1.28356851	    -27.63001603	    -12.78531792	     -8.25661320	    104.41041978	    104.36659093	    -26.10880036	    -15.47501923	    -12.47071275	    112.91750118	     93.37626621	      0.00000000	      0.00000000	      0.00000000	      0.00000000	      0.00000000	      0.00000000	      0.00000000	      0.00000000	      0.89445213	      1.02088424	     -0.45615342	      0.92554967	      1.00567094	     -0.22054888	      0.74370683	      1.06841593	     -0.36867662	      0.76060457	      1.05692896	     -0.28491142	      0.83812811	      0.74541630	     -0.18410945	      0.91625932	      0.67599248	     -0.20445175	      0.85739577	      0.57778184	     -0.21754287	      0.83254255	      0.81254906	     -0.50387053	      0.93750503	      0.72562188	     -0.49466631	      0.91828449	      0.61850269	     -0.47209075	      0.74704724	      0.46615124	     -0.26929260	      0.70219662	      0.52226934	     -0.22783041	      0.57650020	      0.53133828	     -0.27128205	      0.48400774	      0.60459347	     -0.25694779	      0.49108688	      0.56892844	     -0.33453683	      0.98176147	      0.39731502	     -0.41443376	      0.87788922	      0.31154895	     -0.43267374	      0.91887271	      0.21753532	     -0.37531489	      0.47186079	      0.65561144	     -0.33226428	      0.38270243	      0.46066658	     -0.26548222	      0.39645975	      0.54101572	     -0.21007006	      0.77455855	      0.09357125	     -0.31272191	      1.00381520	      0.06704688	     -0.33629634	      0.93622121	      0.05652668	     -0.40166412	      0.89188080	      1.50405709	     -0.52190399	      0.93718311	      1.50260404	     -0.20257472	      0.98720856	      1.43395561	     -0.34424609	      0.87650999	      1.53337210	     -0.35862714	      0.80664883	      1.47273106	     -0.51819432	      0.86617921	      1.37499399	     -0.10043209	      0.77487214	      1.34705264	     -0.10894698	      0.76971532	      1.29884942	     -0.05767250	      0.76744092	      1.23261657	     -0.02579863	      0.72910584	      1.22119777	     -0.10538157	      0.78307201	      1.39263115	     -0.57730744	      0.71524511	      1.32805356	     -0.53978430	      0.70553127	      1.28563178	     -0.60105204	      0.68454650	      1.21312531	     -0.62638778	      0.68024628	      1.19888484	     -0.53875036	      0.80284690	      1.16129427	     -0.04606083	      0.96826287	      1.12107609	     -0.15139888	      0.95103539	      1.06757413	     -0.11408644	      0.74866959	      1.14201730	     -0.61001504	      0.92241370	      1.15639375	     -0.58095765	      0.90854185	      1.09221603	     -0.60071411
